<?xml version="1.0" encoding="UTF-8" standalone="no"?>
<!-- Uploaded to: SVG Repo, www.svgrepo.com, Transformed by: SVG Repo Mixer Tools -->

<svg
   width="800px"
   height="800px"
   viewBox="0 0 24 24"
   fill="none"
   stroke="#000000"
   version="1.1"
   id="svg3"
   sodipodi:docname="earth_globe.svg"
   inkscape:version="1.3.2 (091e20e, 2023-11-25, custom)"
   xmlns:inkscape="http://www.inkscape.org/namespaces/inkscape"
   xmlns:sodipodi="http://sodipodi.sourceforge.net/DTD/sodipodi-0.dtd"
   xmlns="http://www.w3.org/2000/svg"
   xmlns:svg="http://www.w3.org/2000/svg">
  <defs
     id="defs3" />
  <sodipodi:namedview
     id="namedview3"
     pagecolor="#505050"
     bordercolor="#ffffff"
     borderopacity="1"
     inkscape:showpageshadow="0"
     inkscape:pageopacity="0"
     inkscape:pagecheckerboard="1"
     inkscape:deskcolor="#505050"
     inkscape:zoom="1.0606602"
     inkscape:cx="576.05631"
     inkscape:cy="411.53614"
     inkscape:window-width="1920"
     inkscape:window-height="991"
     inkscape:window-x="2391"
     inkscape:window-y="-9"
     inkscape:window-maximized="1"
     inkscape:current-layer="svg3" />
  <path
     d="M 6,4.71053 C 6.78024,5.42105 8.38755,7.36316 8.57481,9.44737 8.70011,10.8421 9.39473,12.0496 10.5,12.631 c 0.4386,0.2308 0.9419,0.3629 1.5,0.369 0.7549,0.0082 1.5183,-0.5371 1.5164,-1.292 -6e-4,-0.2335 -0.0391,-0.4722 -0.0994,-0.6917 C 13.3331,10.7108 13.3257,10.3595 13.5,10 14.1099,8.74254 15.3094,8.40477 16.2599,7.72186 16.6814,7.41898 17.0659,7.09947 17.2355,6.84211 17.7037,6.13158 18.1718,4.71053 17.9377,4"
     stroke="#ffffff"
     stroke-width="1.5"
     id="path1"
     style="stroke-width:1.95;stroke-dasharray:none" />
  <path
     d="m 21.955,12.961716 c -0.1494,0.946 -0.5175,3.413284 -4.2368,3.452084 0,0 -0.7934,0 -1.7182,0.2201 m -2.5635,1.642 c -0.7905,1.4896 -0.343542,2.933694 -0.01414,3.554394"
     stroke="#ffffff"
     stroke-width="1.5"
     stroke-linecap="round"
     id="path2"
     sodipodi:nodetypes="ccccc"
     style="stroke-width:1.95;stroke-dasharray:none" />
  <path
     d="M 7,20.6622 C 8.47087,21.513 10.1786,22 12,22 17.5228,22 22,17.5228 22,12 22,6.47715 17.5228,2 12,2 6.47715,2 2,6.47715 2,12 c 0,1.8214 0.48697,3.5291 1.33782,5"
     stroke="#ffffff"
     stroke-width="1.5"
     stroke-linecap="round"
     id="path3"
     style="stroke-width:1.95;stroke-dasharray:none" />
</svg>
